<svg width="25" height="24" viewBox="0 0 25 24" fill="none" xmlns="http://www.w3.org/2000/svg">
<path d="M21.8855 10H7.8855V7C7.8855 5.897 8.7825 5 9.8855 5C10.9885 5 11.8855 5.897 11.8855 7H13.8855C13.8855 4.794 12.0915 3 9.8855 3C7.6795 3 5.8855 4.794 5.8855 7V10H3.8855C3.62028 10 3.36593 10.1054 3.17839 10.2929C2.99085 10.4804 2.8855 10.7348 2.8855 11V13C2.8855 15.606 4.5595 17.823 6.8855 18.65V22H8.8855V19H16.8855V22H18.8855V18.65C21.2115 17.823 22.8855 15.606 22.8855 13V11C22.8855 10.7348 22.7801 10.4804 22.5926 10.2929C22.4051 10.1054 22.1507 10 21.8855 10ZM20.8855 13C20.8855 15.206 19.0915 17 16.8855 17H8.8855C6.6795 17 4.8855 15.206 4.8855 13V12H20.8855V13Z" fill="black"/>
</svg>
