<svg width="25" height="24" viewBox="0 0 25 24" fill="none" xmlns="http://www.w3.org/2000/svg">
<path d="M21.8855 10.7798V7.99982C21.8855 6.34982 20.5355 4.99982 18.8855 4.99982H14.8855C14.1155 4.99982 13.4155 5.29982 12.8855 5.77982C12.3555 5.29982 11.6555 4.99982 10.8855 4.99982H6.8855C5.2355 4.99982 3.8855 6.34982 3.8855 7.99982V10.7798C3.2755 11.3298 2.8855 12.1198 2.8855 12.9998V18.9998H4.8855V16.9998H20.8855V18.9998H22.8855V12.9998C22.8855 12.1198 22.4955 11.3298 21.8855 10.7798ZM14.8855 6.99982H18.8855C19.4355 6.99982 19.8855 7.44982 19.8855 7.99982V9.99982H13.8855V7.99982C13.8855 7.44982 14.3355 6.99982 14.8855 6.99982ZM5.8855 7.99982C5.8855 7.44982 6.3355 6.99982 6.8855 6.99982H10.8855C11.4355 6.99982 11.8855 7.44982 11.8855 7.99982V9.99982H5.8855V7.99982ZM4.8855 14.9998V12.9998C4.8855 12.4498 5.3355 11.9998 5.8855 11.9998H19.8855C20.4355 11.9998 20.8855 12.4498 20.8855 12.9998V14.9998H4.8855Z" fill="black"/>
</svg>
