<svg width="25" height="24" viewBox="0 0 25 24" fill="none" xmlns="http://www.w3.org/2000/svg">
<path fill-rule="evenodd" clip-rule="evenodd" d="M19.3333 6H5.33325C4.78097 6 4.33325 6.44772 4.33325 7V19C4.33325 19.5523 4.78097 20 5.33325 20H19.3333C19.8855 20 20.3333 19.5523 20.3333 19V7C20.3333 6.44771 19.8855 6 19.3333 6ZM5.33325 4C3.6764 4 2.33325 5.34315 2.33325 7V19C2.33325 20.6569 3.6764 22 5.33325 22H19.3333C20.9901 22 22.3333 20.6569 22.3333 19V7C22.3333 5.34315 20.9901 4 19.3333 4H5.33325Z" fill="#777E91"/>
<path fill-rule="evenodd" clip-rule="evenodd" d="M10.3333 12C9.78097 12 9.33325 12.4477 9.33325 13C9.33325 13.5523 9.78097 14 10.3333 14H17.3333C17.8855 14 18.3333 13.5523 18.3333 13C18.3333 12.4477 17.8855 12 17.3333 12H10.3333ZM7.33325 16C6.78097 16 6.33325 16.4477 6.33325 17C6.33325 17.5523 6.78097 18 7.33325 18H13.3333C13.8855 18 14.3333 17.5523 14.3333 17C14.3333 16.4477 13.8855 16 13.3333 16H7.33325Z" fill="#777E91"/>
<path fill-rule="evenodd" clip-rule="evenodd" d="M7.33325 2C6.78097 2 6.33325 2.44772 6.33325 3V7C6.33325 7.55228 6.78097 8 7.33325 8C7.88554 8 8.33325 7.55228 8.33325 7V3C8.33325 2.44772 7.88554 2 7.33325 2ZM17.3333 2C16.781 2 16.3333 2.44772 16.3333 3V7C16.3333 7.55228 16.781 8 17.3333 8C17.8855 8 18.3333 7.55228 18.3333 7V3C18.3333 2.44772 17.8855 2 17.3333 2Z" fill="#777E91"/>
</svg>
