<svg width="73" height="72" viewBox="0 0 73 72" fill="none" xmlns="http://www.w3.org/2000/svg">
<rect width="72" height="72" transform="translate(0.385742)" fill="#7297AF"/>
<path d="M24.5737 22C21.4483 22 18.8862 24.5621 18.8862 27.6875V44.3125C18.8862 47.4379 21.4483 50 24.5737 50H48.1987C51.3242 50 53.8862 47.4379 53.8862 44.3125V27.6875C53.8862 24.5621 51.3242 22 48.1987 22H24.5737ZM24.5737 24.625H48.1987C49.905 24.625 51.2612 25.9812 51.2612 27.6875V28.6548L36.3862 36.6956L21.5112 28.6548V27.6875C21.5112 25.9812 22.8674 24.625 24.5737 24.625ZM21.5112 31.6387L35.7625 39.3428C35.9541 39.4463 36.1684 39.5005 36.3862 39.5005C36.604 39.5005 36.8184 39.4463 37.01 39.3428L51.2612 31.6387V44.3125C51.2612 46.0188 49.905 47.375 48.1987 47.375H24.5737C22.8674 47.375 21.5112 46.0188 21.5112 44.3125V31.6387Z" fill="white"/>
</svg>
