<svg width="65" height="65" viewBox="0 0 65 65" fill="none" xmlns="http://www.w3.org/2000/svg">
<circle cx="32.3857" cy="32.75" r="32" fill="#7297AF"/>
<path d="M28.5862 18.75C28.4404 18.7499 28.2964 18.7816 28.1641 18.843C28.0318 18.9044 27.9146 18.994 27.8206 19.1055L24.6214 22.9063C24.4536 23.1057 24.3703 23.3629 24.3893 23.6229C24.4082 23.8829 24.528 24.1252 24.723 24.2982L31.723 30.4987C31.9053 30.6602 32.1404 30.7495 32.3839 30.75C32.6275 30.7505 32.8629 30.662 33.0459 30.5013L40.1123 24.3021C40.309 24.1295 40.4302 23.8867 40.4499 23.6257C40.4697 23.3647 40.3863 23.1065 40.2178 22.9063L37.0172 19.1055C36.9234 18.9942 36.8064 18.9047 36.6744 18.8433C36.5423 18.7819 36.3985 18.75 36.2529 18.75H28.5862ZM29.0511 20.75H29.0524V23.4167H26.805L29.0511 20.75ZM32.3857 20.75L34.3857 23.4167H30.3857L32.3857 20.75ZM35.7191 20.75H35.7868L38.0329 23.4167H35.7191V20.75ZM30.749 25.4167H34.0224L32.387 28.4154L32.3831 28.4128L30.749 25.4167ZM44.1097 31.5091C43.3664 31.5222 42.678 31.8252 42.0615 32.2773C41.3835 32.7746 39.3596 34.2808 37.5889 35.5977C37.226 34.3489 36.0767 33.4167 34.7191 33.4167H31.7855C29.9096 33.4167 29.0427 33.2649 28.2933 33.1055C27.5438 32.946 26.8176 32.75 25.5862 32.75C23.0102 32.75 21.0636 34.4126 19.7855 35.9427C18.5074 37.4728 17.8102 39 17.8102 39C17.7517 39.1199 17.7178 39.2502 17.7105 39.3833C17.7032 39.5165 17.7225 39.6498 17.7674 39.7753C17.8124 39.9009 17.8819 40.0162 17.9721 40.1144C18.0622 40.2127 18.1711 40.292 18.2923 40.3475C18.4135 40.4031 18.5446 40.4339 18.6779 40.438C18.8112 40.4422 18.944 40.4197 19.0684 40.3717C19.1929 40.3238 19.3065 40.2515 19.4025 40.1591C19.4986 40.0666 19.5753 39.9558 19.6279 39.8333C19.6279 39.8333 20.2308 38.5272 21.3193 37.224C22.4079 35.9208 23.8956 34.75 25.5862 34.75C26.6215 34.75 27.0607 34.8873 27.8779 35.0612C28.6951 35.2351 29.7947 35.4167 31.7855 35.4167H34.7191C35.3426 35.4167 35.7191 35.7931 35.7191 36.4167C35.7191 37.0402 35.3426 37.4167 34.7191 37.4167H30.0524C29.9199 37.4148 29.7883 37.4393 29.6654 37.4887C29.5424 37.5381 29.4305 37.6115 29.3361 37.7045C29.2417 37.7976 29.1668 37.9084 29.1156 38.0307C29.0645 38.1529 29.0382 38.2841 29.0382 38.4167C29.0382 38.5492 29.0645 38.6804 29.1156 38.8027C29.1668 38.9249 29.2417 39.0358 29.3361 39.1288C29.4305 39.2219 29.5424 39.2952 29.6654 39.3446C29.7883 39.3941 29.9199 39.4185 30.0524 39.4167H34.7191C35.2001 39.4167 35.6499 39.2891 36.055 39.0833C36.223 39.0576 36.3816 38.9895 36.5159 38.8854C36.5159 38.8854 42.2656 34.6067 43.2438 33.8893C43.6273 33.6081 43.9381 33.5114 44.1448 33.5078C44.3516 33.5042 44.5022 33.5475 44.7451 33.7904C44.7553 33.8006 44.7657 33.8106 44.7764 33.8203C45.1473 34.1603 45.1608 34.7276 44.7555 35.1523C41.2178 38.1096 38.9616 40.104 37.4756 41.2721C35.9646 42.4599 35.3191 42.75 34.7191 42.75C32.29 42.75 29.615 42.0833 26.7191 42.0833C25.0524 42.0833 23.8809 42.9791 23.2529 43.8164C22.6249 44.6537 22.4157 45.5078 22.4157 45.5078C22.3804 45.6364 22.3711 45.7707 22.3885 45.9028C22.4058 46.035 22.4494 46.1623 22.5167 46.2774C22.584 46.3925 22.6736 46.493 22.7803 46.5729C22.8869 46.6528 23.0085 46.7107 23.1378 46.743C23.2672 46.7752 23.4016 46.7814 23.5334 46.7609C23.6651 46.7405 23.7914 46.6939 23.9049 46.624C24.0183 46.554 24.1167 46.4621 24.1941 46.3536C24.2716 46.2451 24.3265 46.1222 24.3558 45.9922C24.3558 45.9922 24.4799 45.5129 24.8519 45.0169C25.2239 44.5209 25.7191 44.0833 26.7191 44.0833C29.2898 44.0833 31.9481 44.75 34.7191 44.75C35.9857 44.75 37.1069 44.1073 38.7126 42.8451C40.2888 41.606 42.517 39.6311 46.0237 36.6992C46.072 36.6668 46.1173 36.6302 46.1592 36.5898L46.2256 36.5234C46.3382 36.4104 46.4221 36.2719 46.4704 36.1198C47.2613 34.9487 47.2041 33.3539 46.1396 32.3633C45.5843 31.8165 44.8454 31.4962 44.1097 31.5091Z" fill="white"/>
</svg>
