<svg width="25" height="25" viewBox="0 0 25 25" fill="none" xmlns="http://www.w3.org/2000/svg">
<path d="M18.2257 5.96C17.9884 5.96 17.7564 6.03038 17.5591 6.16224C17.3617 6.29409 17.2079 6.48151 17.1171 6.70078C17.0263 6.92005 17.0025 7.16133 17.0488 7.39411C17.0951 7.62689 17.2094 7.84071 17.3772 8.00853C17.545 8.17635 17.7589 8.29064 17.9916 8.33694C18.2244 8.38324 18.4657 8.35948 18.685 8.26866C18.9042 8.17783 19.0916 8.02402 19.2235 7.82668C19.3554 7.62935 19.4257 7.39734 19.4257 7.16C19.4257 6.84174 19.2993 6.53652 19.0743 6.31147C18.8492 6.08643 18.544 5.96 18.2257 5.96ZM22.8257 8.38C22.8063 7.5503 22.6509 6.7294 22.3657 5.95C22.1115 5.28313 21.7157 4.67928 21.2057 4.18C20.7106 3.66743 20.1053 3.27418 19.4357 3.03C18.6584 2.73616 17.8366 2.57721 17.0057 2.56C15.9457 2.5 15.6057 2.5 12.8857 2.5C10.1657 2.5 9.82574 2.5 8.76574 2.56C7.93489 2.57721 7.11309 2.73616 6.33574 3.03C5.66742 3.27665 5.06268 3.66956 4.56574 4.18C4.05317 4.67518 3.65992 5.28044 3.41574 5.95C3.1219 6.72734 2.96295 7.54915 2.94574 8.38C2.88574 9.44 2.88574 9.78 2.88574 12.5C2.88574 15.22 2.88574 15.56 2.94574 16.62C2.96295 17.4508 3.1219 18.2727 3.41574 19.05C3.65992 19.7196 4.05317 20.3248 4.56574 20.82C5.06268 21.3304 5.66742 21.7234 6.33574 21.97C7.11309 22.2638 7.93489 22.4228 8.76574 22.44C9.82574 22.5 10.1657 22.5 12.8857 22.5C15.6057 22.5 15.9457 22.5 17.0057 22.44C17.8366 22.4228 18.6584 22.2638 19.4357 21.97C20.1053 21.7258 20.7106 21.3326 21.2057 20.82C21.718 20.3226 22.1141 19.7182 22.3657 19.05C22.6509 18.2706 22.8063 17.4497 22.8257 16.62C22.8257 15.56 22.8857 15.22 22.8857 12.5C22.8857 9.78 22.8857 9.44 22.8257 8.38ZM21.0257 16.5C21.0185 17.1348 20.9035 17.7637 20.6857 18.36C20.5261 18.7952 20.2696 19.1884 19.9357 19.51C19.6114 19.8405 19.219 20.0964 18.7857 20.26C18.1894 20.4778 17.5605 20.5927 16.9257 20.6C15.9257 20.65 15.5557 20.66 12.9257 20.66C10.2957 20.66 9.92574 20.66 8.92574 20.6C8.26663 20.6123 7.61034 20.5109 6.98574 20.3C6.57152 20.1281 6.1971 19.8728 5.88574 19.55C5.55383 19.2287 5.30059 18.8352 5.14574 18.4C4.9016 17.7952 4.76619 17.1519 4.74574 16.5C4.74574 15.5 4.68574 15.13 4.68574 12.5C4.68574 9.87 4.68574 9.5 4.74574 8.5C4.75022 7.85106 4.86869 7.20795 5.09574 6.6C5.27179 6.17791 5.54201 5.80166 5.88574 5.5C6.18956 5.15617 6.56503 4.8831 6.98574 4.7C7.59529 4.48004 8.23774 4.36508 8.88574 4.36C9.88574 4.36 10.2557 4.3 12.8857 4.3C15.5157 4.3 15.8857 4.3 16.8857 4.36C17.5205 4.36728 18.1494 4.48225 18.7457 4.7C19.2002 4.86865 19.608 5.14285 19.9357 5.5C20.2634 5.80718 20.5195 6.18273 20.6857 6.6C20.908 7.20893 21.023 7.85178 21.0257 8.5C21.0757 9.5 21.0857 9.87 21.0857 12.5C21.0857 15.13 21.0757 15.5 21.0257 16.5ZM12.8857 7.37C11.8716 7.37198 10.8807 7.67453 10.0384 8.23942C9.19609 8.80431 8.54012 9.6062 8.15338 10.5438C7.76663 11.4813 7.66647 12.5125 7.86554 13.5069C8.06461 14.5014 8.55398 15.4145 9.27182 16.131C9.98966 16.8474 10.9038 17.335 11.8986 17.5321C12.8934 17.7293 13.9244 17.6271 14.8612 17.2385C15.798 16.85 16.5986 16.1924 17.1619 15.349C17.7251 14.5056 18.0257 13.5142 18.0257 12.5C18.0271 11.8251 17.8949 11.1566 17.637 10.533C17.379 9.90931 17.0003 9.34281 16.5226 8.86605C16.0449 8.38929 15.4777 8.01168 14.8535 7.75493C14.2294 7.49818 13.5606 7.36736 12.8857 7.37ZM12.8857 15.83C12.2271 15.83 11.5833 15.6347 11.0357 15.2688C10.4881 14.9029 10.0613 14.3828 9.80922 13.7743C9.55718 13.1659 9.49124 12.4963 9.61973 11.8503C9.74822 11.2044 10.0654 10.611 10.5311 10.1453C10.9968 9.67963 11.5901 9.36247 12.2361 9.23398C12.882 9.1055 13.5516 9.17144 14.1601 9.42348C14.7686 9.67552 15.2886 10.1023 15.6545 10.65C16.0204 11.1976 16.2157 11.8414 16.2157 12.5C16.2157 12.9373 16.1296 13.3703 15.9623 13.7743C15.7949 14.1784 15.5496 14.5454 15.2404 14.8547C14.9312 15.1639 14.5641 15.4092 14.1601 15.5765C13.7561 15.7439 13.323 15.83 12.8857 15.83Z" fill="#777E91"/>
</svg>
