<svg width="25" height="25" viewBox="0 0 25 25" fill="none" xmlns="http://www.w3.org/2000/svg">
<path d="M21.3558 2.50014H4.4158C4.22538 2.4975 4.0363 2.53239 3.85937 2.60282C3.68243 2.67326 3.5211 2.77786 3.3846 2.91065C3.24809 3.04344 3.13908 3.20182 3.06379 3.37675C2.9885 3.55167 2.94841 3.73972 2.9458 3.93014V21.0701C2.94841 21.2606 2.9885 21.4486 3.06379 21.6235C3.13908 21.7985 3.24809 21.9568 3.3846 22.0896C3.5211 22.2224 3.68243 22.327 3.85937 22.3975C4.0363 22.4679 4.22538 22.5028 4.4158 22.5001H21.3558C21.5462 22.5028 21.7353 22.4679 21.9122 22.3975C22.0892 22.327 22.2505 22.2224 22.387 22.0896C22.5235 21.9568 22.6325 21.7985 22.7078 21.6235C22.7831 21.4486 22.8232 21.2606 22.8258 21.0701V3.93014C22.8232 3.73972 22.7831 3.55167 22.7078 3.37675C22.6325 3.20182 22.5235 3.04344 22.387 2.91065C22.2505 2.77786 22.0892 2.67326 21.9122 2.60282C21.7353 2.53239 21.5462 2.4975 21.3558 2.50014ZM8.9758 19.2401H5.9758V10.2401H8.9758V19.2401ZM7.4758 8.98014C7.06206 8.98014 6.66527 8.81578 6.37271 8.52323C6.08016 8.23067 5.9158 7.83388 5.9158 7.42014C5.9158 7.0064 6.08016 6.60961 6.37271 6.31705C6.66527 6.0245 7.06206 5.86014 7.4758 5.86014C7.6955 5.83522 7.91798 5.85699 8.12868 5.92402C8.33937 5.99105 8.53354 6.10183 8.69846 6.2491C8.86338 6.39637 8.99533 6.57682 9.08567 6.77862C9.17602 6.98043 9.22272 7.19904 9.22272 7.42014C9.22272 7.64124 9.17602 7.85985 9.08567 8.06166C8.99533 8.26346 8.86338 8.44391 8.69846 8.59118C8.53354 8.73845 8.33937 8.84923 8.12868 8.91626C7.91798 8.98329 7.6955 9.00505 7.4758 8.98014ZM19.7958 19.2401H16.7958V14.4101C16.7958 13.2001 16.3658 12.4101 15.2758 12.4101C14.9385 12.4126 14.61 12.5184 14.3346 12.7133C14.0593 12.9082 13.8503 13.1828 13.7358 13.5001C13.6575 13.7352 13.6236 13.9827 13.6358 14.2301V19.2301H10.6358C10.6358 19.2301 10.6358 11.0501 10.6358 10.2301H13.6358V11.5001C13.9083 11.0272 14.3047 10.6377 14.7822 10.3733C15.2598 10.109 15.8004 9.97999 16.3458 10.0001C18.3458 10.0001 19.7958 11.2901 19.7958 14.0601V19.2401Z" fill="#777E91"/>
</svg>
