<svg width="25" height="24" viewBox="0 0 25 24" fill="none" xmlns="http://www.w3.org/2000/svg">
<path d="M12.8857 2C8.20037 2 4.38574 5.81463 4.38574 10.5C4.38574 12.6034 5.1574 14.5324 6.4248 16.0156L6.42871 16.0195L6.43164 16.0234C6.43164 16.0234 10.0476 20.1495 11.335 21.3779C12.197 22.1998 13.5735 22.1998 14.4355 21.3779C15.9029 19.9783 19.3408 16.0215 19.3408 16.0215L19.3428 16.0186L19.3457 16.0156C20.6142 14.5324 21.3857 12.6034 21.3857 10.5C21.3857 5.81463 17.5711 2 12.8857 2ZM12.8857 3.5C16.7604 3.5 19.8857 6.62537 19.8857 10.5C19.8857 12.2376 19.2525 13.8163 18.2051 15.041C18.1983 15.0488 14.6808 19.0718 13.4004 20.293C13.1035 20.5761 12.6671 20.5761 12.3701 20.293C11.3 19.2719 7.57629 15.0533 7.56543 15.041L7.56445 15.04C6.5184 13.8154 5.88574 12.2371 5.88574 10.5C5.88574 6.62537 9.01112 3.5 12.8857 3.5ZM12.8857 7.5C11.9482 7.5 11.1501 7.87857 10.6377 8.45508C10.1252 9.03159 9.88574 9.77083 9.88574 10.5C9.88574 11.2292 10.1252 11.9684 10.6377 12.5449C11.1501 13.1214 11.9482 13.5 12.8857 13.5C13.8232 13.5 14.6213 13.1214 15.1338 12.5449C15.6462 11.9684 15.8857 11.2292 15.8857 10.5C15.8857 9.77083 15.6462 9.03159 15.1338 8.45508C14.6213 7.87857 13.8232 7.5 12.8857 7.5ZM12.8857 9C13.4482 9 13.7752 9.18393 14.0127 9.45117C14.2502 9.71841 14.3857 10.1042 14.3857 10.5C14.3857 10.8958 14.2502 11.2816 14.0127 11.5488C13.7752 11.8161 13.4482 12 12.8857 12C12.3232 12 11.9963 11.8161 11.7588 11.5488C11.5212 11.2816 11.3857 10.8958 11.3857 10.5C11.3857 10.1042 11.5212 9.71841 11.7588 9.45117C11.9963 9.18393 12.3232 9 12.8857 9Z" fill="black"/>
</svg>
