<svg width="30" height="30" viewBox="0 0 30 30" fill="none" xmlns="http://www.w3.org/2000/svg">
<g id="icons8-location 1">
<path id="Vector" d="M15 2.5C9.14328 2.5 4.375 7.26828 4.375 13.125C4.375 15.7542 5.33957 18.1655 6.92383 20.0195L6.92871 20.0244L6.93237 20.0293C6.93237 20.0293 11.4523 25.1869 13.0615 26.7224C14.1391 27.7498 15.8597 27.7498 16.9373 26.7224C18.7715 24.9729 23.0688 20.0269 23.0688 20.0269L23.0713 20.0232L23.075 20.0195C24.6606 18.1655 25.625 15.7542 25.625 13.125C25.625 7.26828 20.8567 2.5 15 2.5ZM15 4.375C19.8433 4.375 23.75 8.28172 23.75 13.125C23.75 15.297 22.9585 17.2704 21.6492 18.8013C21.6406 18.811 17.2438 23.8397 15.6433 25.3662C15.2721 25.7201 14.7266 25.7201 14.3555 25.3662C13.0179 24.0898 8.36319 18.8167 8.34961 18.8013L8.34839 18.8C7.04083 17.2693 6.25 15.2964 6.25 13.125C6.25 8.28172 10.1567 4.375 15 4.375ZM15 9.375C13.8281 9.375 12.8305 9.84821 12.1899 10.5688C11.5494 11.2895 11.25 12.2135 11.25 13.125C11.25 14.0365 11.5494 14.9605 12.1899 15.6812C12.8305 16.4018 13.8281 16.875 15 16.875C16.1719 16.875 17.1695 16.4018 17.8101 15.6812C18.4506 14.9605 18.75 14.0365 18.75 13.125C18.75 12.2135 18.4506 11.2895 17.8101 10.5688C17.1695 9.84821 16.1719 9.375 15 9.375ZM15 11.25C15.7031 11.25 16.1118 11.4799 16.4087 11.814C16.7056 12.148 16.875 12.6302 16.875 13.125C16.875 13.6198 16.7056 14.102 16.4087 14.436C16.1118 14.7701 15.7031 15 15 15C14.2969 15 13.8882 14.7701 13.5913 14.436C13.2944 14.102 13.125 13.6198 13.125 13.125C13.125 12.6302 13.2944 12.148 13.5913 11.814C13.8882 11.4799 14.2969 11.25 15 11.25Z" fill="#7297AF"/>
</g>
</svg>
