<svg width="73" height="72" viewBox="0 0 73 72" fill="none" xmlns="http://www.w3.org/2000/svg">
<rect width="72" height="72" transform="translate(0.385742)" fill="#7297AF"/>
<path d="M36.3857 18.5C28.1863 18.5 21.5107 25.1756 21.5107 33.375C21.5107 37.0559 22.8611 40.4317 25.0791 43.0273L25.0859 43.0342L25.0911 43.041C25.0911 43.041 31.419 50.2616 33.6719 52.4114C35.1805 53.8497 37.5893 53.8497 39.0979 52.4114C41.6658 49.9621 47.6821 43.0376 47.6821 43.0376L47.6856 43.0325L47.6907 43.0273C49.9106 40.4317 51.2607 37.0559 51.2607 33.375C51.2607 25.1756 44.5851 18.5 36.3857 18.5ZM36.3857 21.125C43.1663 21.125 48.6357 26.5944 48.6357 33.375C48.6357 36.4158 47.5276 39.1785 45.6946 41.3218C45.6826 41.3354 39.527 48.3756 37.2864 50.5127C36.7667 51.0081 36.003 51.0081 35.4834 50.5127C33.6108 48.7258 27.0942 41.3433 27.0752 41.3218L27.0735 41.3201C25.2429 39.177 24.1357 36.415 24.1357 33.375C24.1357 26.5944 29.6051 21.125 36.3857 21.125ZM36.3857 28.125C34.7451 28.125 33.3485 28.7875 32.4517 29.7964C31.5549 30.8053 31.1357 32.099 31.1357 33.375C31.1357 34.651 31.5549 35.9447 32.4517 36.9536C33.3485 37.9625 34.7451 38.625 36.3857 38.625C38.0264 38.625 39.423 37.9625 40.3198 36.9536C41.2166 35.9447 41.6357 34.651 41.6357 33.375C41.6357 32.099 41.2166 30.8053 40.3198 29.7964C39.423 28.7875 38.0264 28.125 36.3857 28.125ZM36.3857 30.75C37.3701 30.75 37.9422 31.0719 38.3579 31.5395C38.7736 32.0072 39.0107 32.6823 39.0107 33.375C39.0107 34.0677 38.7736 34.7428 38.3579 35.2104C37.9422 35.6781 37.3701 36 36.3857 36C35.4014 36 34.8293 35.6781 34.4136 35.2104C33.9979 34.7428 33.7607 34.0677 33.7607 33.375C33.7607 32.6823 33.9979 32.0072 34.4136 31.5395C34.8293 31.0719 35.4014 30.75 36.3857 30.75Z" fill="white"/>
</svg>
