<svg width="25" height="24" viewBox="0 0 25 24" fill="none" xmlns="http://www.w3.org/2000/svg">
<path d="M9.63574 19.5V18H4.63574C4.08574 18 3.58574 17.78 3.22574 17.41C2.85574 17.05 2.63574 16.55 2.63574 16C2.63574 14.97 3.43574 14.11 4.44574 14.01C4.50574 14 4.56574 14 4.63574 14H19.6357C19.7057 14 19.7657 14 19.8257 14.01C20.3057 14.05 20.7257 14.26 21.0457 14.59C21.4557 14.99 21.6757 15.56 21.6257 16.18C21.5357 17.23 20.5857 18 19.5257 18H14.6357V19.5C14.6357 20.88 13.5157 22 12.1357 22C10.7557 22 9.63574 20.88 9.63574 19.5Z" stroke="black" stroke-width="2" stroke-linecap="round" stroke-linejoin="round"/>
<path d="M20.3059 5.3L19.8259 14.01C19.7659 14 19.7059 14 19.6359 14H4.6359C4.5659 14 4.5059 14 4.4459 14.01L3.9659 5.3C3.7859 3.53 5.1759 2 6.9459 2H17.3259C19.0959 2 20.4859 3.53 20.3059 5.3Z" stroke="black" stroke-width="2" stroke-linecap="round" stroke-linejoin="round"/>
<path d="M8.12598 2V7" stroke="black" stroke-width="2" stroke-linecap="round" stroke-linejoin="round"/>
<path d="M12.1357 2V4" stroke="black" stroke-width="2" stroke-linecap="round" stroke-linejoin="round"/>
</svg>
