<svg width="65" height="65" viewBox="0 0 65 65" fill="none" xmlns="http://www.w3.org/2000/svg">
<circle cx="32.3857" cy="32.75" r="32" fill="#7297AF"/>
<path d="M32.3858 19.4166C28.7157 19.4166 25.7191 22.4132 25.7191 26.0833C25.7191 29.7533 28.7157 32.75 32.3858 32.75C36.0558 32.75 39.0525 29.7533 39.0525 26.0833C39.0525 22.4132 36.0558 19.4166 32.3858 19.4166ZM32.3858 21.4166C34.975 21.4166 37.0525 23.4941 37.0525 26.0833C37.0525 28.6725 34.975 30.75 32.3858 30.75C29.7966 30.75 27.7191 28.6725 27.7191 26.0833C27.7191 23.4941 29.7966 21.4166 32.3858 21.4166ZM41.7191 34.1497C38.7858 34.1497 36.3858 36.5497 36.3858 39.483C36.3858 40.6164 36.7194 41.6164 37.3194 42.483L34.0525 45.75C33.6524 46.0833 33.6527 46.7497 33.986 47.1497C34.186 47.3497 34.4524 47.4166 34.7191 47.4166C34.9858 47.4166 35.2522 47.3497 35.4522 47.1497L38.7191 43.8828C39.5858 44.4828 40.5858 44.8164 41.7191 44.8164C44.6525 44.8164 47.0525 42.4164 47.0525 39.483C47.0525 36.5497 44.6525 34.1497 41.7191 34.1497ZM24.7191 35.4166C23.0524 35.4166 21.7191 36.75 21.7191 38.4166V39.4166C21.7191 43.15 26.3858 46.0833 32.3858 46.0833C32.5191 45.6166 32.7191 45.15 33.0525 44.75L33.7855 44.0169C33.3855 44.0836 32.8524 44.0833 32.3858 44.0833C27.7191 44.0833 23.7191 41.95 23.7191 39.4166V38.4166C23.7191 37.8833 24.1858 37.4166 24.7191 37.4166H35.3858C35.5858 36.6833 35.9855 36.0166 36.4522 35.4166H24.7191ZM41.7191 36.0833C43.5858 36.0833 45.0525 37.55 45.0525 39.4166C45.0525 41.2833 43.5858 42.75 41.7191 42.75C39.8524 42.75 38.3858 41.2833 38.3858 39.4166C38.3858 37.55 39.8524 36.0833 41.7191 36.0833Z" fill="white"/>
</svg>
