<svg width="73" height="72" viewBox="0 0 73 72" fill="none" xmlns="http://www.w3.org/2000/svg">
<rect width="72" height="72" transform="translate(0.385742)" fill="#7297AF"/>
<path d="M39.4482 18.5C39.2743 18.4976 39.1016 18.5297 38.9402 18.5946C38.7788 18.6594 38.6319 18.7557 38.508 18.8778C38.3842 18.9999 38.2858 19.1455 38.2187 19.3059C38.1516 19.4664 38.117 19.6386 38.117 19.8125C38.117 19.9865 38.1516 20.1587 38.2187 20.3191C38.2858 20.4796 38.3842 20.6251 38.508 20.7472C38.6319 20.8694 38.7788 20.9656 38.9402 21.0305C39.1016 21.0954 39.2743 21.1275 39.4482 21.125C45.9873 21.125 51.2607 26.3984 51.2607 32.9375C51.2582 33.1114 51.2904 33.2841 51.3552 33.4455C51.4201 33.6069 51.5164 33.7538 51.6385 33.8777C51.7606 34.0015 51.9061 34.0999 52.0666 34.167C52.227 34.2341 52.3992 34.2687 52.5732 34.2687C52.7471 34.2687 52.9193 34.2341 53.0798 34.167C53.2403 34.0999 53.3858 34.0015 53.5079 33.8777C53.63 33.7538 53.7263 33.6069 53.7912 33.4455C53.856 33.2841 53.8881 33.1114 53.8857 32.9375C53.8857 24.9796 47.4061 18.5 39.4482 18.5ZM27.6716 18.512C27.0956 18.4701 26.5054 18.529 25.9267 18.7H25.925L23.8554 19.3135C21.6483 19.9663 19.9237 21.7175 19.3403 23.9278C18.0448 28.8433 19.5268 34.6615 23.3837 41.2107C27.2353 47.7509 31.6239 51.9075 36.5805 53.2642C38.8126 53.8751 41.2198 53.2915 42.9106 51.721L44.4863 50.2598C46.2494 48.6228 46.5123 45.8962 45.0878 43.9588L42.8115 40.8672C41.5912 39.2098 39.4403 38.5042 37.4623 39.0984L33.9008 40.1648C33.7513 40.2085 33.3936 40.0049 33.0822 39.7359L33.0805 39.7342C32.526 39.252 31.7577 38.2774 30.9357 36.8836V36.8819C30.0544 35.385 29.6785 34.406 29.5275 33.8279C29.3765 33.2495 29.4132 33.1792 29.4352 32.9837C29.4467 32.8861 29.4931 32.7957 29.572 32.7239L29.5737 32.7222L32.2294 30.2937C33.751 28.9028 34.2103 26.68 33.3522 24.8096L31.7492 21.3164V21.3147C30.9953 19.6714 29.399 18.6377 27.6716 18.512ZM27.4819 21.1302C28.2853 21.1902 29.0251 21.6721 29.3635 22.4102L30.9648 25.9033C31.3527 26.749 31.1582 27.7166 30.4572 28.3574L27.8032 30.7842C27.2587 31.2806 26.9106 31.9574 26.8273 32.688V32.6897C26.8056 32.8818 26.7544 33.5963 26.988 34.491C27.2215 35.3857 27.7038 36.569 28.673 38.2149H28.6747C29.5791 39.7487 30.4339 40.9141 31.3596 41.7183H31.3613C31.6619 41.9785 32.9218 43.1861 34.6357 42.6856L34.6408 42.6839L38.2177 41.6123C39.1465 41.3333 40.1397 41.6665 40.6975 42.4241L42.9738 45.5156C43.6184 46.3939 43.5058 47.5876 42.7004 48.3355L41.1247 49.7984C40.117 50.7348 38.6206 51.1004 37.2726 50.7315C33.2657 49.6347 29.3006 46.0845 25.6464 39.8794C21.9871 33.6659 20.8426 28.5267 21.8781 24.5977C22.2204 23.301 23.2692 22.2246 24.6005 21.8308L26.6701 21.2173C26.9397 21.1376 27.2141 21.1101 27.4819 21.1302ZM39.4482 23.75C39.2743 23.7476 39.1016 23.7797 38.9402 23.8446C38.7788 23.9094 38.6319 24.0057 38.508 24.1278C38.3842 24.2499 38.2858 24.3955 38.2187 24.5559C38.1516 24.7164 38.117 24.8886 38.117 25.0625C38.117 25.2365 38.1516 25.4087 38.2187 25.5691C38.2858 25.7296 38.3842 25.8751 38.508 25.9972C38.6319 26.1194 38.7788 26.2156 38.9402 26.2805C39.1016 26.3454 39.2743 26.3775 39.4482 26.375C43.0886 26.375 46.0107 29.2971 46.0107 32.9375C46.0082 33.1114 46.0404 33.2841 46.1052 33.4455C46.1701 33.6069 46.2664 33.7538 46.3885 33.8777C46.5106 34.0015 46.6561 34.0999 46.8166 34.167C46.977 34.2341 47.1492 34.2687 47.3232 34.2687C47.4971 34.2687 47.6693 34.2341 47.8298 34.167C47.9903 34.0999 48.1358 34.0015 48.2579 33.8777C48.38 33.7538 48.4763 33.6069 48.5412 33.4455C48.606 33.2841 48.6381 33.1114 48.6357 32.9375C48.6357 27.8787 44.507 23.75 39.4482 23.75ZM39.4482 29C39.2743 28.9976 39.1016 29.0297 38.9402 29.0946C38.7788 29.1594 38.6319 29.2557 38.508 29.3778C38.3842 29.4999 38.2858 29.6455 38.2187 29.8059C38.1516 29.9664 38.117 30.1386 38.117 30.3125C38.117 30.4865 38.1516 30.6587 38.2187 30.8191C38.2858 30.9796 38.3842 31.1251 38.508 31.2472C38.6319 31.3694 38.7788 31.4656 38.9402 31.5305C39.1016 31.5954 39.2743 31.6275 39.4482 31.625C40.1889 31.625 40.7607 32.1968 40.7607 32.9375C40.7582 33.1114 40.7904 33.2841 40.8552 33.4455C40.9201 33.6069 41.0164 33.7538 41.1385 33.8777C41.2606 34.0015 41.4061 34.0999 41.5666 34.167C41.727 34.2341 41.8992 34.2687 42.0732 34.2687C42.2471 34.2687 42.4193 34.2341 42.5798 34.167C42.7403 34.0999 42.8858 34.0015 43.0079 33.8777C43.13 33.7538 43.2263 33.6069 43.2912 33.4455C43.356 33.2841 43.3881 33.1114 43.3857 32.9375C43.3857 30.7785 41.6072 29 39.4482 29Z" fill="white"/>
</svg>
