<svg width="65" height="65" viewBox="0 0 65 65" fill="none" xmlns="http://www.w3.org/2000/svg">
<circle cx="32.3857" cy="32.75" r="32" fill="#7297AF"/>
<path d="M27.7243 19.4166C27.5887 19.4159 27.4543 19.4428 27.3294 19.4956C27.2045 19.5484 27.0917 19.6261 26.9977 19.7239L19.8193 27.1888C18.8723 28.1739 18.3857 29.5667 18.3857 31.0234V44.4166C18.3857 44.8053 18.4967 45.1763 18.736 45.4922C18.9753 45.808 19.3949 46.0833 19.891 46.0833H35.5472C36.0438 46.0833 36.4629 45.8077 36.7021 45.4922C36.9414 45.1766 37.0537 44.806 37.0537 44.4166V31.0234C37.0537 29.5667 36.5659 28.1739 35.6188 27.1888L28.4404 19.7239C28.3477 19.6274 28.2365 19.5504 28.1135 19.4977C27.9905 19.4449 27.8581 19.4173 27.7243 19.4166ZM37.0524 19.4297C36.7861 19.4297 36.5204 19.5279 36.3324 19.7239L33.3102 22.8659L34.6982 24.3086L37.0524 21.8593L43.5107 28.5755C44.0587 29.1462 44.3857 30.0607 44.3857 31.0234V44.0833H38.3857V44.4166C38.3857 45.0386 38.2136 45.6093 37.9183 46.0833H44.8805C45.7245 46.0833 46.3857 45.3513 46.3857 44.4166V31.0234C46.3857 29.5347 45.8635 28.1374 44.9521 27.1888L37.7725 19.7239C37.5845 19.5279 37.3187 19.4297 37.0524 19.4297ZM27.7191 21.8593L34.1774 28.5755C34.689 29.1077 35.0537 30.0295 35.0537 31.0234V44.0833H20.3857V31.0234C20.3857 30.0295 20.7491 29.1077 21.2607 28.5755L27.7191 21.8593ZM24.3857 30.75C24.0321 30.75 23.693 30.8904 23.4429 31.1405C23.1929 31.3905 23.0524 31.7297 23.0524 32.0833C23.0524 32.4369 23.1929 32.7761 23.4429 33.0261C23.693 33.2762 24.0321 33.4166 24.3857 33.4166C24.7394 33.4166 25.0785 33.2762 25.3286 33.0261C25.5786 32.7761 25.7191 32.4369 25.7191 32.0833C25.7191 31.7297 25.5786 31.3905 25.3286 31.1405C25.0785 30.8904 24.7394 30.75 24.3857 30.75ZM31.0524 30.75C30.6988 30.75 30.3596 30.8904 30.1096 31.1405C29.8596 31.3905 29.7191 31.7297 29.7191 32.0833C29.7191 32.4369 29.8596 32.7761 30.1096 33.0261C30.3596 33.2762 30.6988 33.4166 31.0524 33.4166C31.406 33.4166 31.7452 33.2762 31.9952 33.0261C32.2453 32.7761 32.3857 32.4369 32.3857 32.0833C32.3857 31.7297 32.2453 31.3905 31.9952 31.1405C31.7452 30.8904 31.406 30.75 31.0524 30.75ZM40.3857 30.75C40.0321 30.75 39.693 30.8904 39.4429 31.1405C39.1929 31.3905 39.0524 31.7297 39.0524 32.0833C39.0524 32.4369 39.1929 32.7761 39.4429 33.0261C39.693 33.2762 40.0321 33.4166 40.3857 33.4166C40.7394 33.4166 41.0785 33.2762 41.3286 33.0261C41.5786 32.7761 41.7191 32.4369 41.7191 32.0833C41.7191 31.7297 41.5786 31.3905 41.3286 31.1405C41.0785 30.8904 40.7394 30.75 40.3857 30.75ZM24.3857 35.4166C24.0321 35.4166 23.693 35.5571 23.4429 35.8072C23.1929 36.0572 23.0524 36.3964 23.0524 36.75C23.0524 37.1036 23.1929 37.4427 23.4429 37.6928C23.693 37.9428 24.0321 38.0833 24.3857 38.0833C24.7394 38.0833 25.0785 37.9428 25.3286 37.6928C25.5786 37.4427 25.7191 37.1036 25.7191 36.75C25.7191 36.3964 25.5786 36.0572 25.3286 35.8072C25.0785 35.5571 24.7394 35.4166 24.3857 35.4166ZM31.0524 35.4166C30.6988 35.4166 30.3596 35.5571 30.1096 35.8072C29.8596 36.0572 29.7191 36.3964 29.7191 36.75C29.7191 37.1036 29.8596 37.4427 30.1096 37.6928C30.3596 37.9428 30.6988 38.0833 31.0524 38.0833C31.406 38.0833 31.7452 37.9428 31.9952 37.6928C32.2453 37.4427 32.3857 37.1036 32.3857 36.75C32.3857 36.3964 32.2453 36.0572 31.9952 35.8072C31.7452 35.5571 31.406 35.4166 31.0524 35.4166ZM40.3857 35.4166C40.0321 35.4166 39.693 35.5571 39.4429 35.8072C39.1929 36.0572 39.0524 36.3964 39.0524 36.75C39.0524 37.1036 39.1929 37.4427 39.4429 37.6928C39.693 37.9428 40.0321 38.0833 40.3857 38.0833C40.7394 38.0833 41.0785 37.9428 41.3286 37.6928C41.5786 37.4427 41.7191 37.1036 41.7191 36.75C41.7191 36.3964 41.5786 36.0572 41.3286 35.8072C41.0785 35.5571 40.7394 35.4166 40.3857 35.4166ZM24.3857 40.0833C24.0321 40.0833 23.693 40.2238 23.4429 40.4738C23.1929 40.7239 23.0524 41.063 23.0524 41.4166C23.0524 41.7703 23.1929 42.1094 23.4429 42.3594C23.693 42.6095 24.0321 42.75 24.3857 42.75C24.7394 42.75 25.0785 42.6095 25.3286 42.3594C25.5786 42.1094 25.7191 41.7703 25.7191 41.4166C25.7191 41.063 25.5786 40.7239 25.3286 40.4738C25.0785 40.2238 24.7394 40.0833 24.3857 40.0833ZM31.0524 40.0833C30.6988 40.0833 30.3596 40.2238 30.1096 40.4738C29.8596 40.7239 29.7191 41.063 29.7191 41.4166C29.7191 41.7703 29.8596 42.1094 30.1096 42.3594C30.3596 42.6095 30.6988 42.75 31.0524 42.75C31.406 42.75 31.7452 42.6095 31.9952 42.3594C32.2453 42.1094 32.3857 41.7703 32.3857 41.4166C32.3857 41.063 32.2453 40.7239 31.9952 40.4738C31.7452 40.2238 31.406 40.0833 31.0524 40.0833ZM40.3857 40.0833C40.0321 40.0833 39.693 40.2238 39.4429 40.4738C39.1929 40.7239 39.0524 41.063 39.0524 41.4166C39.0524 41.7703 39.1929 42.1094 39.4429 42.3594C39.693 42.6095 40.0321 42.75 40.3857 42.75C40.7394 42.75 41.0785 42.6095 41.3286 42.3594C41.5786 42.1094 41.7191 41.7703 41.7191 41.4166C41.7191 41.063 41.5786 40.7239 41.3286 40.4738C41.0785 40.2238 40.7394 40.0833 40.3857 40.0833Z" fill="white"/>
</svg>
