<svg width="25" height="25" viewBox="0 0 25 25" fill="none" xmlns="http://www.w3.org/2000/svg">
<path d="M22.8857 6.30021C22.1341 6.6263 21.3392 6.84187 20.5257 6.94021C21.3839 6.42753 22.027 5.62099 22.3357 4.67021C21.5293 5.15027 20.6465 5.48851 19.7257 5.67021C19.1103 5.00278 18.2907 4.55851 17.3956 4.40706C16.5004 4.25562 15.5803 4.40557 14.7795 4.8334C13.9788 5.26123 13.3427 5.94274 12.971 6.77105C12.5993 7.59935 12.513 8.5276 12.7257 9.41021C11.0952 9.32774 9.50018 8.90316 8.0444 8.16407C6.58861 7.42498 5.30459 6.3879 4.27574 5.12021C3.91488 5.75038 3.72526 6.46403 3.72574 7.19021C3.72446 7.86459 3.88996 8.52883 4.2075 9.12377C4.52504 9.71872 4.98476 10.2259 5.54574 10.6002C4.89372 10.5825 4.25563 10.4075 3.68574 10.0902V10.1402C3.69063 11.0851 4.02174 11.9993 4.62306 12.7282C5.22438 13.457 6.059 13.9559 6.98574 14.1402C6.629 14.2488 6.25862 14.306 5.88574 14.3102C5.62763 14.3072 5.37016 14.2838 5.11574 14.2402C5.37965 15.053 5.89036 15.7634 6.57682 16.2724C7.26327 16.7814 8.09132 17.0638 8.94574 17.0802C7.50294 18.2155 5.72163 18.8351 3.88574 18.8402C3.55148 18.8413 3.21748 18.8213 2.88574 18.7802C4.76017 19.9905 6.94456 20.6329 9.17574 20.6302C10.7154 20.6462 12.2429 20.3552 13.6689 19.7743C15.0948 19.1934 16.3908 18.3341 17.4809 17.2467C18.5711 16.1593 19.4337 14.8656 20.0183 13.4411C20.6029 12.0166 20.8978 10.4899 20.8857 8.95021C20.8857 8.78021 20.8857 8.60021 20.8857 8.42021C21.6704 7.83502 22.3472 7.11763 22.8857 6.30021Z" fill="#777E91"/>
</svg>
