<svg width="72" height="72" viewBox="0 0 72 72" fill="none" xmlns="http://www.w3.org/2000/svg">
<rect width="72" height="72" fill="#7297AF"/>
<path fill-rule="evenodd" clip-rule="evenodd" d="M49.3139 23.3523C45.8681 19.9026 41.2858 18.002 36.4037 18C26.3443 18 18.157 26.1866 18.1531 36.2491C18.1516 39.4658 18.992 42.6055 20.5892 45.3732L18 54.8304L27.6749 52.2925C30.3406 53.7465 33.3419 54.5129 36.3964 54.5139H36.4038C36.4032 54.5139 36.4044 54.5139 36.4038 54.5139C46.4622 54.5139 54.6502 46.3265 54.6544 36.2637C54.6562 31.3871 52.7595 26.8018 49.3139 23.3523ZM36.4038 51.4317H36.3976C33.6758 51.4306 31.006 50.6993 28.677 49.3173L28.1232 48.9886L22.3819 50.4945L23.9144 44.8969L23.5537 44.3229C22.0353 41.9078 21.2334 39.1164 21.2345 36.2502C21.2378 27.8866 28.0428 21.0824 36.4099 21.0824C40.4615 21.0836 44.2702 22.6636 47.1342 25.5309C49.9981 28.3981 51.5744 32.2093 51.5728 36.2625C51.5694 44.6267 44.7646 51.4317 36.4038 51.4317Z" fill="white"/>
<path fill-rule="evenodd" clip-rule="evenodd" d="M44.7243 40.0709C44.2684 39.8427 42.0263 38.7397 41.6083 38.5874C41.1904 38.4352 40.8863 38.3591 40.5824 38.8156C40.2784 39.272 39.4044 40.2993 39.1384 40.6037C38.8724 40.9079 38.6063 40.9462 38.1504 40.7177C37.6944 40.4894 36.2251 40.008 34.4833 38.4544C33.1276 37.2451 32.2124 35.7519 31.9463 35.2952C31.6804 34.8388 31.918 34.5921 32.1463 34.3646C32.3515 34.1602 32.6024 33.832 32.8304 33.5657C33.0584 33.2995 33.1344 33.1091 33.2864 32.805C33.4384 32.5006 33.3625 32.2343 33.2484 32.0061C33.1344 31.7779 32.2224 29.5333 31.8425 28.6201C31.4722 27.731 31.0963 27.8514 30.8163 27.8373C30.5507 27.824 30.2463 27.8213 29.9424 27.8213C29.6384 27.8213 29.1443 27.9355 28.7264 28.3919C28.3084 28.8485 27.1302 29.9518 27.1302 32.1961C27.1302 34.4408 28.7643 36.6092 28.9923 36.9134C29.2203 37.2179 32.2079 41.8238 36.7824 43.7991C37.8704 44.269 38.7198 44.5496 39.3821 44.7597C40.4745 45.1068 41.4686 45.0578 42.2543 44.9404C43.1305 44.8095 44.9524 43.8373 45.3323 42.7722C45.7124 41.7069 45.7124 40.7937 45.5983 40.6036C45.4844 40.4134 45.1803 40.2993 44.7243 40.0709Z" fill="white"/>
</svg>
